<?xml version="1.0" standalone="no"?><!DOCTYPE svg PUBLIC "-//W3C//DTD SVG 1.1//EN" "http://www.w3.org/Graphics/SVG/1.1/DTD/svg11.dtd"><svg t="1675042983100" class="icon" viewBox="0 0 1024 1024" version="1.1" xmlns="http://www.w3.org/2000/svg" p-id="4796" xmlns:xlink="http://www.w3.org/1999/xlink" width="200" height="200"><path d="M128 160h816v144H128z" fill="#95EAFF" p-id="4797"></path><path d="M544 576m-176 0a176 176 0 1 0 352 0 176 176 0 1 0-352 0Z" fill="#95EAFF" p-id="4798"></path><path d="M880 288H144a16 16 0 0 0 0 32h736a16 16 0 0 0 0-32zM512 384c-106.032 0-192 85.968-192 192s85.968 192 192 192 192-85.968 192-192-85.968-192-192-192z m0 352c-88.368 0-160-71.632-160-160s71.632-160 160-160 160 71.632 160 160-71.632 160-160 160z" fill="#49A3FE" p-id="4799"></path><path d="M513.28 833.232m-17.232 0a17.232 17.232 0 1 0 34.464 0 17.232 17.232 0 1 0-34.464 0Z" fill="#49A3FE" p-id="4800"></path><path d="M512 576m-48 0a48 48 0 1 0 96 0 48 48 0 1 0-96 0Z" fill="#49A3FE" p-id="4801"></path><path d="M928 128h-48.976A15.536 15.536 0 0 0 880 123.2V80a16 16 0 0 0-32 0v43.2c0 1.712 0.48 3.264 0.976 4.8H175.024A15.536 15.536 0 0 0 176 123.2V80a16 16 0 0 0-32 0v43.2c0 1.696 0.48 3.264 0.976 4.8H96a16 16 0 0 0-16 16v128a16 16 0 0 0 32 0v-112h800v105.856a16 16 0 0 0 32 0V144a16 16 0 0 0-16-16zM838.112 305.728l25.984 238.352C864 736.768 706.4 894.352 512 894.352s-352-157.6-352-352l23.84-234.704-31.84-3.216-23.92 236.32C128 754.432 299.92 926.352 512 926.352s384-171.92 384-384l-26.08-240.096-31.808 3.472z" fill="#0F13AE" p-id="4802"></path><path d="M624 576a112 112 0 1 0-224 0 112 112 0 0 0 224 0z m-192 0a80 80 0 1 1 160.016 0.016A80 80 0 0 1 432 576z" fill="#0F13AE" p-id="4803"></path></svg>