<?xml version="1.0" standalone="no"?><!DOCTYPE svg PUBLIC "-//W3C//DTD SVG 1.1//EN" "http://www.w3.org/Graphics/SVG/1.1/DTD/svg11.dtd"><svg t="1675042927608" class="icon" viewBox="0 0 1024 1024" version="1.1" xmlns="http://www.w3.org/2000/svg" p-id="3443" xmlns:xlink="http://www.w3.org/1999/xlink" width="200" height="200"><path d="M512 389.12c-87.552 0-158.72-71.168-158.72-158.72s71.168-158.72 158.72-158.72 158.72 71.168 158.72 158.72-71.168 158.72-158.72 158.72z m0-256c-53.76 0-97.28 43.52-97.28 97.28s43.52 97.28 97.28 97.28 97.28-43.52 97.28-97.28-43.52-97.28-97.28-97.28z" fill="#A32A1F" p-id="3444"></path><path d="M512 952.32c-246.784 0-440.32-103.424-440.32-235.52s193.536-235.52 440.32-235.52c16.896 0 30.72 13.824 30.72 30.72s-13.824 30.72-30.72 30.72c-226.816 0-378.88 90.112-378.88 174.08s152.064 174.08 378.88 174.08 378.88-90.112 378.88-174.08c0-77.312-124.928-150.016-290.304-168.96-16.896-2.048-29.184-17.408-27.136-33.792 2.048-16.896 17.408-28.672 33.792-27.136 202.752 23.552 344.576 117.76 344.576 229.888 0.512 132.096-193.024 235.52-439.808 235.52z" fill="#E09527" p-id="3445"></path><path d="M512 839.68c-122.368 0-215.04-52.736-215.04-122.88s92.672-122.88 215.04-122.88c16.896 0 30.72 13.824 30.72 30.72s-13.824 30.72-30.72 30.72c-93.696 0-153.6 36.352-153.6 61.44s59.904 61.44 153.6 61.44 153.6-36.352 153.6-61.44c0-14.848-24.064-36.864-70.144-50.176-16.384-4.608-25.6-21.504-20.992-37.888 4.608-16.384 22.016-25.6 37.888-20.992 71.68 20.48 114.176 61.44 114.176 109.568 0.512 69.632-92.16 122.368-214.528 122.368z" fill="#A32A1F" p-id="3446"></path><path d="M481.28 358.4h61.44v266.24H481.28z" fill="#A32A1F" p-id="3447"></path></svg>